/* XPM */
static char *a874249c02a64222bdfc99cb374ce761ca3RPGuwz5Gy8sl1[] = {
/* columns rows colors chars-per-pixel */
"32 32 143 2 ",
"   c #3F3C22",
".  c #45130E",
"X  c #551107",
"o  c #57170C",
"O  c #5D1309",
"+  c #5C1C0D",
"@  c #401C13",
"#  c #4D1B15",
"$  c #4C1E19",
"%  c #551D17",
"&  c #63160A",
"*  c #641B0D",
"=  c #6C1C0D",
"-  c #4F231E",
";  c #51221B",
":  c #5E361F",
">  c #642516",
",  c #752313",
"<  c #7A2714",
"1  c #7D2814",
"2  c #69341A",
"3  c #592D27",
"4  c #453425",
"5  c #413E24",
"6  c #493F2B",
"7  c #523425",
"8  c #5B3124",
"9  c #5D3531",
"0  c #642C24",
"q  c #6C2D24",
"w  c #722D23",
"e  c #63352D",
"r  c #603B29",
"t  c #693A2F",
"y  c #713723",
"u  c #783923",
"i  c #6B3A31",
"p  c #763F38",
"a  c #39412A",
"s  c #394E32",
"d  c #3E5735",
"f  c #1D653D",
"g  c #1E683E",
"h  c #23663C",
"j  c #246A3E",
"k  c #366036",
"l  c #3E6137",
"z  c #35643C",
"x  c #3B653A",
"c  c #3E6E3F",
"v  c #464023",
"b  c #4B4224",
"n  c #5B442D",
"m  c #5B4F29",
"M  c #5D4231",
"N  c #425236",
"B  c #4B5A37",
"V  c #555332",
"C  c #634A27",
"Z  c #694926",
"A  c #644F29",
"S  c #6D5029",
"D  c #6C433D",
"F  c #75423B",
"G  c #794139",
"H  c #476739",
"J  c #48603A",
"K  c #1E6F41",
"L  c #1F7042",
"P  c #227243",
"I  c #297745",
"U  c #2D7A46",
"Y  c #357643",
"T  c #3A7545",
"R  c #337C47",
"E  c #3A7C47",
"W  c #327E48",
"Q  c #397C49",
"!  c #495241",
"~  c #505341",
"^  c #664540",
"/  c #6E4740",
"(  c #644F44",
")  c #6B4D41",
"_  c #774940",
"`  c #7A4A41",
"'  c #6C554B",
"]  c #67594C",
"[  c #6D594D",
"{  c #715146",
"}  c #76524A",
"|  c #7E564E",
" . c #71584C",
".. c #7C5750",
"X. c #7C5C51",
"o. c #436040",
"O. c #456A46",
"+. c #427148",
"@. c #726557",
"#. c #7A5E68",
"$. c #77666F",
"%. c #852D15",
"&. c #8C2E14",
"*. c #922F13",
"=. c #873B1F",
"-. c #923215",
";. c #863622",
":. c #833B22",
">. c #913D20",
",. c #804527",
"<. c #83442A",
"1. c #964B27",
"2. c #924929",
"3. c #81493F",
"4. c #854E43",
"5. c #855A4F",
"6. c #815951",
"7. c #895E55",
"8. c #8A5F58",
"9. c #975F53",
"0. c #846157",
"q. c #8C655C",
"w. c #996155",
"e. c #94695E",
"r. c #A56E5F",
"t. c #867766",
"y. c #9C7164",
"u. c #9E7769",
"i. c #A07166",
"p. c #A97264",
"a. c #A27468",
"s. c #A37C6F",
"d. c #B27B6B",
"f. c #A67D70",
"g. c #37824A",
"h. c #978673",
"j. c #988774",
"k. c #AC8475",
"l. c #B18C7D",
"z. c #BE9483",
"x. c #C89E8C",
"c. c #D2A997",
"v. c #D4AB98",
/* pixels */
"g.g.g.g.g.g.g.g.g.g.g.g.g.g.g.g.g.g.g.g.g.g.g.g.g.g.g.g.g.g.g.g.",
"g.g.W W W g.g.g.g.g.g.g.g.g.g.g.g.g.g.g.g.g.g.g.g.g.g.g.g.g.g.g.",
"g.U K P P W g.g.g.g.g.g.g.g.g.g.g.g.g.g.g.g.g.g.g.g.W W W g.g.g.",
"g.g.I K U g.g.g.g.g.g.g.g.g.g.g.g.g.g.g.g.g.g.g.g.W P P K U g.g.",
"g.g.g.W g.g.g.g.g.g.g.g.g.g.g.g.g.g.g.g.g.g.g.g.g.g.U K I g.g.g.",
"g.g.g.g.g.g.g.g.g.g.g.g.g.g.g.W g.g.g.g.g.g.g.g.g.g.g.W g.g.g.g.",
"g.g.g.g.g.W g.W g.g.g.g.g.g.c V d Y W g.W g.g.g.g.g.g.g.g.g.g.g.",
"g.g.g.g.U L P P W g.g.g.g.H : ;.; 5 h P L W g.g.g.g.g.g.g.g.g.g.",
"g.g.g.g.g.I K U g.Q Q Q H 2 , ;.% o   h I g.g.g.g.g.g.g.W g.W g.",
"g.g.g.g.g.g.W g.g.+.! ~ ,.-.%.;.% & * v Y g.g.g.g.g.g.W P P P U ",
"g.g.g.g.g.g.g.g.g.O.] ' :.-.< ;.% O & + b Y g.g.g.g.g.g.U K I g.",
"g.g.g.g.g.g.g.g.g.o.[  .1.-.1 ;.% & = & + b Y g.W g.W g.g.W g.g.",
"g.W g.W g.g.g.g.H n  .{ =.*.< >.> & & & O * v Y P P L U g.g.g.g.",
"U P P P W g.g.W m y ) <.&.* ; 2.y . O & & O + x U K I g.g.g.g.g.",
"g.I K U g.g.g.R S :.u %.* ; D ` _ 9 . X O X + l g.W g.g.g.g.g.g.",
"g.g.W g.g.g.g.W C &.-.* ; 8.7.D / e.D . X & + l g.g.g.g.g.g.g.g.",
"g.g.g.g.g.g.g.W A &.= ; e.x.q.D ^ k.z.F . O + x g.g.g.g.g.g.g.g.",
"g.g.g.g.g.g.g.R Z = # G p.d.9.3.4.r.d.w.0 . + l g.g.g.g.g.g.g.g.",
"g.g.g.g.g.g.g.R 5 # - e i i i i i i i i 3 $ @ k g.g.g.g.W g.W g.",
"g.g.g.g.g.g.g.g.z 6 e 0.| 6.s.l.y.` _ 5.} 8 s Y g.g.g.W P P P U ",
"g.g.W g.W g.g.g.g.B t ..$.#.f.v.a.q q G 6.r T g.g.g.g.g.U K I g.",
"g.U P P P W g.g.g.B t { @.' u.c.y.w w p | r T g.g.g.g.g.g.W g.g.",
"g.g.I K U g.g.g.g.B i y.y.y.z.v.i.q w G ..r T g.g.g.g.g.g.g.g.g.",
"g.g.g.W g.g.g.g.g.J M t.j.h.h.h.X.q w i ( n T g.g.g.g.g.g.g.g.g.",
"g.g.g.g.g.W g.W g.E T T T T T T N 0 q 7 x T g.g.g.g.W g.W g.g.g.",
"g.g.g.g.U P P P W g.g.g.g.g.g.g.z 4 4 a Y g.g.g.g.W P P P U g.g.",
"g.g.g.g.g.I K U g.g.g.g.g.g.g.g.R f j g R g.g.g.g.g.U K I g.g.g.",
"g.g.g.g.g.g.W g.g.g.g.g.g.g.g.g.g.I K I g.g.g.g.g.g.g.W g.g.g.g.",
"g.g.g.g.g.g.g.g.g.g.g.W g.W g.g.g.g.R g.g.g.g.g.g.g.g.g.g.g.g.g.",
"g.g.g.g.g.g.g.g.g.g.W P I P W g.g.g.g.g.g.g.g.g.g.g.g.g.g.g.g.g.",
"g.g.g.g.g.g.g.g.g.g.g.I K I g.g.g.g.g.g.g.g.g.g.g.g.g.g.g.g.g.g.",
"g.g.g.g.g.g.g.g.g.g.g.g.U g.g.g.g.g.g.g.g.g.g.g.g.g.g.g.g.g.g.g."
};
