/* XPM */
static char *_b2746408f484513ac81736a32219ac9f968k8fHuM19popW[] = {
/* columns rows colors chars-per-pixel */
"32 40 224 2 ",
"   c #2C0B00",
".  c #3B0C0A",
"X  c #390903",
"o  c #3E1808",
"O  c #1E3519",
"+  c #2F2116",
"@  c #2D3118",
"#  c #382723",
"$  c #3C3626",
"%  c #4B0A03",
"&  c #420C09",
"*  c #4D0B09",
"=  c #4D0006",
"-  c #530C04",
";  c #461203",
":  c #4A1301",
">  c #4F140C",
",  c #571607",
"<  c #4A1715",
"1  c #541B13",
"2  c #5B1F13",
"3  c #521117",
"4  c #680E04",
"5  c #631202",
"6  c #681909",
"7  c #72130A",
"8  c #641C1A",
"9  c #6A1616",
"0  c #751A13",
"q  c #7D1919",
"w  c #43291F",
"e  c #40211C",
"r  c #5B221F",
"t  c #54281A",
"y  c #5E3515",
"u  c #76220B",
"i  c #652013",
"p  c #6B2B1A",
"a  c #682918",
"s  c #74261A",
"d  c #6C301C",
"f  c #65311B",
"g  c #753018",
"h  c #571E24",
"j  c #472D25",
"k  c #4C2B29",
"l  c #452121",
"z  c #5D2E2F",
"x  c #57292C",
"c  c #4D3127",
"v  c #553027",
"b  c #4C3835",
"n  c #503834",
"m  c #692B23",
"M  c #682522",
"N  c #752523",
"B  c #742C23",
"V  c #792C24",
"C  c #752E28",
"Z  c #6C3422",
"A  c #6A3923",
"S  c #67392A",
"D  c #733323",
"F  c #733B2B",
"G  c #773629",
"H  c #6C3733",
"J  c #683B36",
"K  c #783839",
"L  c #154A26",
"P  c #1E502D",
"I  c #1F5D34",
"U  c #2C4820",
"Y  c #344E2B",
"T  c #28522E",
"R  c #32592E",
"E  c #354230",
"W  c #365C35",
"Q  c #1D6B3B",
"!  c #1D6A34",
"~  c #1A723F",
"^  c #216E3C",
"/  c #2A693D",
"(  c #256636",
")  c #36663A",
"_  c #25723D",
"`  c #277239",
"'  c #327B3F",
"]  c #42442C",
"[  c #5C4324",
"{  c #5B452B",
"}  c #44532C",
"|  c #4A5A2B",
" . c #535E26",
".. c #434735",
"X. c #495736",
"o. c #535835",
"O. c #69482B",
"+. c #674537",
"@. c #774635",
"#. c #6E5530",
"$. c #50602F",
"%. c #436D3C",
"&. c #456539",
"*. c #57683E",
"=. c #676535",
"-. c #5E3F45",
";. c #1D7542",
":. c #266E43",
">. c #2C6940",
",. c #316E42",
"<. c #257241",
"1. c #2B7443",
"2. c #247842",
"3. c #2D7B45",
"4. c #2C7749",
"5. c #2E7B49",
"6. c #347345",
"7. c #337D45",
"8. c #3A7D45",
"9. c #337E4A",
"0. c #3B7D4A",
"q. c #397146",
"w. c #297F52",
"e. c #367953",
"r. c #524940",
"t. c #595E47",
"y. c #784747",
"u. c #64594F",
"i. c #6A5B4A",
"p. c #6B524D",
"a. c #7C5B49",
"s. c #755449",
"d. c #6B4B50",
"f. c #665753",
"g. c #7A5559",
"h. c #446C44",
"j. c #427D4B",
"k. c #49754B",
"l. c #407F52",
"z. c #78614F",
"x. c #7A645B",
"c. c #776456",
"v. c #6F6856",
"b. c #6F6C6D",
"n. c #852204",
"m. c #8E2C0F",
"M. c #8F3407",
"N. c #882416",
"B. c #862F11",
"V. c #86371C",
"C. c #973B15",
"Z. c #94290F",
"A. c #A83719",
"S. c #B93819",
"D. c #993F25",
"F. c #8C3229",
"G. c #A62D25",
"H. c #8D431C",
"J. c #9A431E",
"K. c #9B4825",
"L. c #974732",
"P. c #81503F",
"I. c #914E30",
"U. c #A94326",
"Y. c #B5472A",
"T. c #834146",
"R. c #83514D",
"E. c #87584E",
"W. c #835A53",
"Q. c #8A5455",
"!. c #925B54",
"~. c #876757",
"^. c #936659",
"/. c #9C625E",
"(. c #88735B",
"). c #A16158",
"_. c #8F5760",
"`. c #976B64",
"'. c #8A7368",
"]. c #9C736C",
"[. c #977567",
"{. c #987C71",
"}. c #AE786B",
"|. c #33833E",
" X c #2D8246",
".X c #2E8449",
"XX c #2C8A4C",
"oX c #278749",
"OX c #348146",
"+X c #388345",
"@X c #35824A",
"#X c #3A854D",
"$X c #3E854D",
"%X c #39834B",
"&X c #348A4D",
"*X c #3C884E",
"=X c #2E8255",
"-X c #358452",
";X c #3A8451",
":X c #338A51",
">X c #3D8A53",
",X c #328058",
"<X c #41834E",
"1X c #428451",
"2X c #418850",
"3X c #A98878",
"4X c #B48279",
"5X c #C08B7D",
"6X c #8F8895",
"7X c #B99982",
"8X c #BC9A91",
"9X c #A68880",
"0X c #C89E92",
"qX c #C79886",
"wX c #C6A78C",
"eX c #C7A693",
"rX c #CFA592",
"tX c #CFA49D",
"yX c #D7A695",
"uX c #D1B293",
"iX c #D5A98E",
"pX c #E1A78F",
"aX c #DDA6A9",
"sX c #E8B5A0",
/* pixels */
"@X@X@X@X#X@X@X%X X@X%X%X%X@X@X@X@X@X@X@X&X@X#X%X%X9.%X%X7.OX*X%X",
"@X@X@X@X%X%X%X%X%X%X@X@X@X@X0.0.@X%X%X@X@X@X@X%X;X#X8.OX$XOX7.#X",
"5.5.5.9.@X@X@X@X<X%X@X.X@X%X%X%X%X%X%X%X8.OX@XOX%X%X7.@X>X@X7.;X",
"^ <.5.9.%X@X@X@X0.@X@X@X%X%X%X@X@X%X@X%X%X%X%XOX@X7.%X%X7.9.9.1.",
":.4.9.;X%X@X@X%X%X%X@X%X0.@X XoX@X@X XOX%X$X#X@X%X%X*X@X_ ^ <.Q ",
"9.9.;X%X@X@X@X%X@X%X%X%X@X@X@X&X$X#X&X.X@X%X%X@XOX#X%X@X7.^ Q 4.",
"9.%X%X%X@X@X@X@X@X%X0.%X&X@Xj.k.h.0.@X@X%X0.9.@X7.@XOX@X#X9.3.-X",
"8.9.%X%X#X#X#X@X@X0.0.@XXX@X%.o.Y ) 9.-X%X9.%X@X#X8.@X@X7.%X;X5.",
"@X1X1.=X-X6.j.0.@X<X-X5.;X%.w A.g + R 9.=X_ %X@X@X0.j.@X@X2X' @X",
" X$X/ <.;.Q  X.X9.0.k.&X` N.8 J.D . 2 U w.( 2.%XoX@X%X&X@X0.0.:X",
" X<X6.^ ~ 2.@X@Xq.h.q.| V.m.0 C.s < 7 i T 3.7.-X@X@X5.&X#X0.%X5.",
"+X$X%X3.5.;X<Xj.X.O ] L.V.Y.s K.s 3 p 6 < ) .X@Xj.8.7.@X:X@X%X/ ",
"8.@X&X@X0.1X%X@Xu.p.W.y V.A., C.Z & 6 , - p W 9.OX%X1X0.@X.X-X,.",
"@XOX&X%X7.@X.X.Xf.u.x.@.K.n.q K.p o 7 0 > 0 > &.oXXX>X0.@X:X:X9.",
"@X@X%X%X@X X8.&...x.u.I.D.S.i C.g * s 4 9 , - y ) 7.3.@X0.9.&X@X",
"%X9.7.@XXX&X*.D a.i.s.a B.M.a A.L.; 6 6 * i : 6 1 X.!  X1.( 9.;X",
":.@XOX X-X%X$.H.-.#.I.n.Z.: < @.D.o X 8 4 5 : 9 5 X.9.1.1.8.%X&X",
":.0.OX@X-X%X=.Y.J a F.8 1 l y.W.a.i.k . - 0 % * 6 X.9.4.7.%X%X X",
"9.1X%X;X-X%X=.A.C.Z.N.X t ^.!.O.K R./.v X - , 6 , } @X@X@X%X%X@X",
".X%X8.0.-X@X .C.A.u 2 j ^.0Xs.i.f.r.8X].x < & 9 5 | %X@X@X@X8.@X",
" X%X0.%X.X@X=.U.u % 1 '.yXsXP.+.H @.pXyX].v   , s o.8.8.@X@X@X@X",
"0.%X@X:X@X<X#.G.. x T.3X4X5X).g.R.^.}.3X9XQ.h = , } 8.8.%X&X@X@X",
"%X%X X@X%X0.} , t r V D B f g G C F V B C G t 1 . Y @X%X%X@X9.OX",
"@X@X@X%X0.&X( @ z # c.z._.x.(.].`.v.c.W.E.z.@ x # ) &X%X%X-X9.7.",
"@X%X9.9.@X;X;X9.{ j }.@.H @.wXeXwXQ.f Z @.{.b A 7.8.%X@X@X#X9.! ",
";X9.>X@X%X>X7.%XO.w g.b.6Xd.7XiXyXT.d a M ].k F %X8.@X#X@X@X7.3.",
"3._ 9.9.9.%X3.%X+.# f.b.6Xb 3X0XqXH Z F m `.c A @X@X@X#X#X@X@X#X",
"^ 2.1.%X;X9.$X%X+.# ~.O.+.S 7XaXeXJ a G N `.n [ 7.%X#X9.%X%X@X@X",
"<.@X9.;X;X@X$X8.[ c rXrXtXyXuXrXyXK V m N [.k A 7.%X@X7.%X@X7.7.",
"5.@X;X@X9.#X9.8.{ $ ~.'.'.'.(.(.(.z s A M t.$ [ %X@X@X@X#X%X%X;X",
";X%X%X9.9.%X%X$Xl.e.1X7.9.0.7.e.9...N G M W e.+X+XOX@X@X@X9.%X%X",
"@X%X_ 5.5._ %X9.@X-X<X' 9.%X&X5.%XE N m r / ,X|.7.%X%X7._ 5.5.^ ",
"@X@X5.<._ 1.9.#X%X%X*XOX@X@X#X8.;XI L P L 6.;X@X%X%X%X@X5.^ ^ 1.",
"#X@X@X5.1.7.9.@X%X7.7.@X#X7.7.@X%X<./ >.>.;X%X@X@X%X@X%X@X1.1.9.",
"@X%X%X@X9.%X%X%X%X@X8.@X@X#X@X9.9.9.1.1.9.%X5.@X8.@XOX%X%X9.7.%X",
"@X@X%X%X%X%X#X%X%X#X9.%X9.;X%X@X@X@X@X2.-X@X9.#XOX@X@X@X#X@X9.%X",
"@X@X%X#X@X9.9.9.%X5.<.5.1.1.3.$X#X@X@X@X>X@X%X8.%X%X#X@X%X@X@X#X",
"@X@X%X%X%X9.@X%X@X5.<.<.^ 1.8.$X%X7.@X@X@X7.$X8.@X%X%X@X@X@X@X#X",
"%X@X@X@X%X%X%X#X@X%X9.<.1.9.$X+X#X#X@X@X#X9.#X#X@X@X@X8.@X@X@X@X",
";X@X@X%X%X%X@X@X@X@X-X9.-X@X%X7.5.*X7.@X#X7.OX@X@X#X@XOX#X$X%X8."
};
