/* XPM */
static char *dfc96dcc4e184150dff4b364a9a0d1be9awQrMGhrDsda7xf[] = {
/* columns rows colors chars-per-pixel */
"32 32 4 1 ",
"  c #422626",
". c #4F322C",
"X c #7D3F31",
"o c white",
/* pixels */
" . .  . ...  .   .... .  ..  ...",
"XX..XXXXXXXX... ..XXXXXXXXXX..X ",
".XXXXXXXXXXXXXX XXXXXXXXXXXXXXX.",
"..XXXXX.XXXXXX. .XXXXXXXXX..XXX ",
" ... XXX   .   ...   ..  . ..  .",
"XXX .XXXXX...........XXXXXX.....",
"XX. ..XXXXXX......X XXXXXXXXXXXX",
".XX ......XXXXXXXXX .XXXX..XXXX.",
" ...   .   ...  .   .. . ..   . ",
"......X XXXXX..XX...... XXXXXXX.",
"XXXXXXX XXXXXXXXXXXX... .XXXXXX.",
"....... ..XXXXXXXXXXXX. ..XXXXXX",
"   ...   .   X.X  X  X.. ...  . ",
".XX.XXXXX.. XXX.....XXX..XX .X.X",
"XXXXX..XXXX XXXXXXXXXXXX..X .XXX",
".XXXXX....X XXXXXXXXXXXXXX. XXX.",
"   XX.    .X.  X ..X   X X   X  ",
".....XX.......X XXXXXX...XX.... ",
"..XXXXXXXXXXXXX ..XXXXXXXXXXXXX ",
".XXXXXXXXXXXX.. ....XXXXXXX.XX. ",
"      X   XX   X  X  XXX   .XX  ",
"... XXXXXXXXXXXXXX.........XX...",
".XX .X....XXXXXXXXX XXXXXXXXXXX.",
"XXXXX....X..XXXX... ....XXXXXXX.",
"  ..    .....  .   .  ...  . .  ",
"XXXXXX....XXXXXXXXXXX.. ....XXX.",
".XXXXXX XXXXXXXXXXXXX.XXXXXXXXXX",
".XXXXXX ...X.XXXXXXXXXX ...XXXX.",
"  ... ....   .. .... .   .   .. ",
".XXXXXXXXX. ..XXXXXXXXXX... .XXX",
"XXXXXXXXXXX .XXXXXXXXXXXXXX.XXXX",
"..XXXXXX.XX....XXXXXXXXX... ..X."
};
