/* XPM */
static char *_13f80b588fb465efec0177061a1b390JDD9wgEBNPTlMg3u[] = {
/* columns rows colors chars-per-pixel */
"32 32 3 1 ",
"  c #37824A",
". c #065C39",
"X c white",
/* pixels */
"                                ",
"                                ",
"  . .                           ",
"   .                      . .   ",
"                           .    ",
"                                ",
"                                ",
"     . .          . .           ",
"      .            .            ",
"                            . . ",
"                             .  ",
"           . .                  ",
"            .           . .     ",
" . .                     .      ",
"  .                             ",
"                                ",
"                                ",
"                                ",
"                   . .          ",
"                    .       . . ",
"            . .              .  ",
"  . .        .                  ",
"   .                            ",
"                                ",
"                                ",
"     . .                  . .   ",
"      .          . .       .    ",
"                  .             ",
"                                ",
"           . .                  ",
"            .                   ",
"                                "
};
