/* XPM */
static char *_801d4d1732042318c56cd24cc638cd9ySTzOXzu7dbCvJ2T[] = {
/* columns rows colors chars-per-pixel */
"17 22 172 2 ",
"   c #0E1A10",
".  c #051C14",
"X  c #3A160D",
"o  c #2C1F17",
"O  c #3C141C",
"+  c #07201A",
"@  c #042A15",
"#  c #13341F",
"$  c #3E1522",
"%  c #012E27",
"&  c #002C29",
"*  c #08252B",
"=  c #102B3C",
"-  c #45170A",
";  c #47091A",
":  c #4A111B",
">  c #451815",
",  c #450B09",
"<  c #6F0D00",
"1  c #7E0C1F",
"2  c #7F0E14",
"3  c #7A1910",
"4  c #7B2411",
"5  c #4D0F26",
"6  c #4C1C2F",
"7  c #481323",
"8  c #791422",
"9  c #7C132B",
"0  c #7F1F2A",
"q  c #164E27",
"w  c #0B5226",
"e  c #005E3E",
"r  c #0B5833",
"t  c #1B5D37",
"y  c #205131",
"u  c #056229",
"i  c #046B3C",
"p  c #1B6C31",
"a  c #186E3D",
"s  c #146C32",
"d  c #1C7734",
"f  c #146628",
"g  c #206F36",
"h  c #2A693C",
"j  c #2D763C",
"k  c #24763C",
"l  c #337D3F",
"z  c #417F3E",
"x  c #002D42",
"c  c #096446",
"v  c #186D4C",
"b  c #186650",
"n  c #146054",
"m  c #2C7B45",
"M  c #2D7C4B",
"N  c #267545",
"B  c #387441",
"V  c #347C44",
"C  c #397C46",
"Z  c #337E4B",
"A  c #3A7E4E",
"S  c #347C52",
"D  c #3D7A53",
"F  c #3A7C67",
"G  c #407B44",
"H  c #437E4D",
"J  c #437B52",
"K  c #477A58",
"L  c #8D0C15",
"P  c #8C171D",
"I  c #B31F1D",
"U  c #B6231C",
"Y  c #840D20",
"T  c #851720",
"R  c #841633",
"E  c #BA1A32",
"W  c #812226",
"Q  c #BE2329",
"!  c #BE253A",
"~  c #CA0D23",
"^  c #C71E23",
"/  c #CE1A37",
"(  c #CE1C3C",
")  c #D41830",
"_  c #EC1D25",
"`  c #CC2227",
"'  c #C92130",
"]  c #C5263A",
"[  c #DC2736",
"{  c #E82B29",
"}  c #FD2027",
"|  c #E52A3D",
" . c #FF2634",
".. c #F02835",
"X. c #F32732",
"o. c #FF472F",
"O. c #ED3E43",
"+. c #FE344A",
"@. c #FF3C50",
"#. c #E82B47",
"$. c #EF434F",
"%. c #E84C4D",
"&. c #F44142",
"*. c #F2474F",
"=. c #FC404F",
"-. c #F1484F",
";. c #FA4844",
":. c #F3514F",
">. c #FA4663",
",. c #F37775",
"<. c #3AA11E",
"1. c #2C833C",
"2. c #24803D",
"3. c #3F803E",
"4. c #348832",
"5. c #39A938",
"6. c #42803D",
"7. c #429D36",
"8. c #41A727",
"9. c #70BF32",
"0. c #66C73A",
"q. c #278646",
"w. c #2D8344",
"e. c #2E834B",
"r. c #2C8849",
"t. c #348344",
"y. c #3A8444",
"u. c #338B45",
"i. c #34824B",
"p. c #3A834C",
"a. c #39894E",
"s. c #2D8557",
"d. c #348553",
"f. c #3B8453",
"g. c #348C54",
"h. c #3B8951",
"j. c #328F58",
"k. c #3E8259",
"l. c #379056",
"z. c #448247",
"x. c #42834D",
"c. c #428953",
"v. c #478456",
"b. c #428164",
"n. c #69C755",
"m. c #82B244",
"M. c #E68177",
"N. c #E2817B",
"B. c #F48479",
"V. c #FC817A",
"C. c #BBDC69",
"Z. c #B7EB7C",
"A. c #CBD165",
"S. c #CADF76",
"D. c #F67886",
"F. c #F4768B",
"G. c #F7F8D8",
"H. c #E6FFE3",
"J. c #ECFFEF",
"K. c #E3FFEC",
"L. c #FDF6EB",
"P. c #F2FFEE",
"I. c #FDFBEF",
"U. c #FFEAF0",
"Y. c #ECFFFC",
"T. c #E6FFF5",
"R. c #F5F7F3",
"E. c #F4FCF4",
"W. c #FDFDF3",
"Q. c #FDF5FE",
"!. c #F4FDFD",
"~. c #FEFCFB",
/* pixels */
"d.i.i.S J y.k d.q.H 1.x.1.A 6.i.i.",
"t l.r.x.C w.x.i.c.w.K p.D w.d.f.Z ",
"b.B z t.Z d.L.R.U.Y.j.i.D a.p.d N ",
"d.d.t.u.A !.c c p r P.!.H.A C 3.M ",
"4.D s.G f.R.u n.9.S.b w v W.F i.i.",
"H k h s.W.: 5 % x <.. Z.C.i I.r.Z ",
"q.y.S !.o } o.{ >.@ 5.A.c n E.p.i.",
"p.K Y.> +.B.#.F.*.;.+ 5.& = ~.V f.",
"H S ~.- M.,.D.X.-.{ 9 * 7.m.e W.Z ",
"2.~.6 @.N.V.| %. .< ! #   0.t Q.a.",
"x.R.; ..B.O.=.` :.' 1 Q x 8.r Q.V ",
"D W.$ $. .&.] &.I 2 / 8 > y q T.t.",
"f.L.$ [ _ U W ^ P L 0 8 : W.K.v.p.",
"V ~.7 ` ) 3 E L Y 9 4 ; E.k.C J Z ",
"j T.$ ~ T ( 1 0 R : X G.F u.r.f.i.",
"i.D !.- - , 6 X O ~.!.v.y.S t.l i.",
"Z f.J J.~.~.~.~.J.J p.a.p.p.i.i.i.",
"i.p f h.p.k.d.g.K A f.w.V C i.g m ",
"f.j p.l V p.t.w.M M s i.c.V V p.k ",
"M e.i.h.f.A p.x.d.g.e.V V c.p.i.Z ",
"f.f.m e.M a N m a.m p.p.V p.V i.i.",
"z.G z.y.h.i.Z p.p.p.V V p.p.a.a.p."
};
