/* XPM */
static char *af623c42bfda4e8298244a3092a7c65eDRc9qp5yGKWvabgT[] = {
/* columns rows colors chars-per-pixel */
"32 32 196 2 ",
"   c #010301",
".  c #0C0302",
"X  c #020A01",
"o  c #01030B",
"O  c #0A040D",
"+  c #030A0D",
"@  c #090B08",
"#  c #150201",
"$  c #110E00",
"%  c #10000A",
"&  c #1D0407",
"*  c #021202",
"=  c #011800",
"-  c #00140F",
";  c #1D1200",
":  c #010213",
">  c #0B0513",
",  c #0B0617",
"<  c #170415",
"1  c #101012",
"2  c #220000",
"3  c #7D1900",
"4  c #7C1A1C",
"5  c #671B1B",
"6  c #6E2409",
"7  c #79230A",
"8  c #74280D",
"9  c #692313",
"0  c #692C14",
"q  c #652A18",
"w  c #7D2314",
"e  c #7E2811",
"r  c #72231C",
"t  c #7C2C18",
"y  c #732D13",
"u  c #6E3517",
"i  c #7E341B",
"p  c #7B1D26",
"a  c #662720",
"s  c #6A2927",
"d  c #792424",
"f  c #742828",
"g  c #752822",
"h  c #692E34",
"j  c #772439",
"k  c #603433",
"l  c #4F302B",
"z  c #145118",
"x  c #034F29",
"c  c #065420",
"v  c #0C5927",
"b  c #09552D",
"n  c #0E5C2B",
"m  c #095526",
"M  c #125B2E",
"N  c #0D5C33",
"B  c #125134",
"V  c #0F6621",
"C  c #12602C",
"Z  c #156231",
"A  c #196733",
"S  c #2D7D3E",
"D  c #25773E",
"F  c #347B3D",
"G  c #3A7D3E",
"H  c #2C7745",
"J  c #2E7B45",
"K  c #2D7C4A",
"L  c #27774A",
"P  c #347241",
"I  c #3D7746",
"U  c #337D45",
"Y  c #3B7B44",
"T  c #35774C",
"R  c #337D4A",
"E  c #3A7C4C",
"W  c #3F764C",
"Q  c #207755",
"!  c #2A7850",
"~  c #337D51",
"^  c #3B7D53",
"/  c #3E7C5B",
"(  c #3A7F60",
")  c #397A67",
"_  c #43754D",
"`  c #427D4B",
"'  c #417C44",
"]  c #50774A",
"[  c #447B52",
"{  c #477E58",
"}  c #821B1A",
"|  c #80151B",
" . c #82240D",
".. c #832D15",
"X. c #882219",
"o. c #893618",
"O. c #821D25",
"+. c #841D33",
"@. c #A8152F",
"#. c #872624",
"$. c #8B283C",
"%. c #2D8B3D",
"&. c #36883B",
"*. c #36833B",
"=. c #2B8345",
"-. c #2C8A46",
";. c #2E854C",
":. c #2D8A4D",
">. c #24804D",
",. c #348245",
"<. c #3C8344",
"1. c #388A40",
"2. c #35824B",
"3. c #3A844C",
"4. c #338A4B",
"5. c #3C894D",
"6. c #378F43",
"7. c #3E9048",
"8. c #2D8454",
"9. c #2E8C55",
"0. c #2D8958",
"q. c #358453",
"w. c #388651",
"e. c #3D8652",
"r. c #3A8553",
"t. c #368D51",
"y. c #3D8952",
"u. c #3C8952",
"i. c #35835A",
"p. c #3C845A",
"a. c #32895C",
"s. c #3C8C5C",
"d. c #2F9252",
"f. c #369356",
"g. c #3B8A66",
"h. c #418544",
"j. c #41844B",
"k. c #42884C",
"l. c #428253",
"z. c #418B53",
"x. c #48865A",
"c. c #448263",
"v. c #438569",
"b. c #8D957D",
"n. c #F39B5C",
"m. c #F7A45E",
"M. c #EC9C73",
"N. c #E59B7A",
"B. c #E89F7E",
"V. c #F0917B",
"C. c #DEA76F",
"Z. c #DCAD72",
"A. c #D7B079",
"S. c #DAB370",
"D. c #E4A668",
"F. c #F3A66B",
"G. c #EAA572",
"H. c #E4A279",
"J. c #EEA27C",
"K. c #E4AB7C",
"L. c #E8AB78",
"P. c #F6AA75",
"I. c #ECBA7C",
"U. c #E4B46A",
"Y. c #0F3A99",
"T. c #123994",
"R. c #2B3386",
"E. c #313C8B",
"W. c #123DA5",
"Q. c #004382",
"!. c #034A95",
"~. c #07499F",
"^. c #07439B",
"/. c #124797",
"(. c #144498",
"). c #005990",
"_. c #0542A2",
"`. c #0053B1",
"'. c #93998D",
"]. c #B38D9D",
"[. c #94A28B",
"{. c #98A794",
"}. c #988ABD",
"|. c #DDAA84",
" X c #E4AA8A",
".X c #FFA181",
"XX c #F2AD83",
"oX c #FBB486",
"OX c #F4A390",
"+X c #E7B1A7",
"@X c #9A8BC2",
"#X c #EEE7D4",
"$X c #F3EBD4",
"%X c #E6EDE5",
"&X c #F7ECEA",
"*X c #F9E8F8",
/* pixels */
"3.U 3.5.U 2.3.3.2.U 3.,.:.R y.U ;.R u.=.z.I e.;.3.U 3.,.3.U 3.R ",
"3.u.R 2.2.2.2.3.3.3.3.J E f.I 3.5.3.R 3.U 2.2.3.3.3.3.U 2.U 2.5.",
"J 2.n ~ n r.J 2.2.U 3.j.:.P t.Y 3.2.U U y.=.,.I U 3.2.R q.3.2.3.",
"2.2.K Z q.K 3.3.3.2.3.U 3.4.,.5.2.2.3.U :.2.Y k.5.J A K n w.3.U ",
"5.,.e.R R e.3.U 3.U 4.3.[ T e.=.U d.` e.P t.` ,.,.2.H n q.H ,.3.",
"F 3.U U E y.U 3.U 3.=.3.W $ [ T 3.J ^ # [ T =.Y 2.2.3.r.2.w.5.U ",
"3.3.3.5.3.U s.q.2.5.=.K . l 2 { x.H # k   9.x.U 3.2.3.2.J U 3.3.",
"2.3.2.U y.n K N 3.E ,.e.. +.h X E * s +.* p.K 3.3.3.2.U 5.2.R 3.",
"5.U U 3.R 2.n ~ U a.X , 0 | t X   p  .9 : O 9.G R 3.r.R w.2.,.2.",
"U y.5.U 3.2.R w.x.  #.3 f Y._.~.W.(._.o.5 X.X g.Y 2.U r.m 2.M J ",
"U 2.U U ,.3.,.2.S ` . !.!.1   , =   O !.!.  ^ P y.,.R y.2.N 3.q.",
"w.R 2.3.,.5.J 2.&.s.) +   r #.q | j p   & / 2.6.,.i.,.q.R ,.~ 2.",
"R q.R 2.R R y.2.p.K X y u d t e a #...} q o ~ 3.b 3.b U 5.r.<.3.",
"r.v r.M r.R R 3.F ; O.s 9 r X.4 d  .: 8 #.s . T s.x y.q.R ,.R ,.",
"2.R v 2.2.2.3.2.i.X @.g ..$.6 } > # i X.w 7 # =.K 5.R ,.,.r.U w.",
"2.3.2.2.3.2.3.3.q.# 7 j 8 w 4 * |.XX  X j r . ;.,.2.,.,.2.U q.R ",
"3.2.3.R 3.R 3.3.: a     X O . Z.J.F.S.P.  > 0 X 2.2.3.U 3.U 3.U ",
"U y.U U y.3.U 3.] X < J.I.n.V. XL.J.N.|.OX# X c.U U U 2.5.2.y.2.",
"3.J 3.3.U ,.5.U L 0.% H.# +XD..XB.L. X# Z.- _ _ 3.3.3.3.,.R R 2.",
"U 2.3.2.U U 2.2.4.3.O M.K.m.G.H.P.D.F.U. X. g.,.3.U 3.3.C R n q.",
"3.3.2.2.2.w.3.3.<.D o P.A.M.I.K.H.M.G.oXM.o Q 5.U y.U J 2.n q.K ",
"2.H Z K n q.R U h.[ ( . : O     + o < o   ` f.*.3.3.2.3.2.2.2.w.",
"e.2.K n w.H e.5.9.T X Q.)./.^.%X%X^.T.`.^.O *.,.2.U 2.2.2.3.U 2.",
"U 2.3.2.2.3.3.,.F / X F.N.^.*X$X&X#X~.C.G.# 8./ 2.2.3.2.3.3.3.3.",
"2.2.3.3.R w.H q.{ -.F o @ R.'.].].b.E.X o &.-.T 2.2.2.2.q.2.2.3.",
"3.U U 2.3.c r.n r.F &.v.X @X[.X X {.}.X ( S <.2.3.J Z 2.v w.2.U ",
"2.3.3.2.H y.c 2.,.5.1.L T + X q.i.X + B q.u.U 5.2.3.H n w.R 2.5.",
"3.J 2.y.2.,.3.2.=.R ,.t.e.' E 3.K c.z r.4.U 3.S 3.U 2.q.H 3.y.U ",
"U 5.2.U 2.w.J w.2.p.3.2.R %.q.` l.8.%.,.3.G x.,.U 3.3.U u.U U 3.",
"2.3.3.2.2.5.2.2.3.! r.M >.V ^ ,.,.U 4.=.T h.L j.3.2.2.U y.2.2.3.",
"2.U 2.3.U 3.3.2.3.l.D 0.M U K 5.<.=.2.3.;.7.E 3.3.J 3.2.3.U 3.U ",
"3.3.2.2.y.J z.U G t.,.~ 2.a.,.h.G y.8.q.Y ,.2.3.2.3.3.3.U 3.3.3."
};
