/* XPM */
static char *c43b9635bfad4764da7b31a19df46cd50ZKjcb0dbcwNh1zj[] = {
/* columns rows colors chars-per-pixel */
"32 32 3 1 ",
"  c #EFD1A2",
". c #D8B289",
"X c white",
/* pixels */
"                                ",
"                           .    ",
"  ..                     .. .   ",
"    .             .             ",
"           .       ..           ",
"          . ..         .        ",
"      .                        .",
"                                ",
"              .           ..    ",
"            ..      .       .   ",
"     .                          ",
"      ..           .            ",
" .                .             ",
"            .           ..   .  ",
"  .        .           .        ",
"..                              ",
"                                ",
"     .        ..              . ",
"   .         .      .           ",
"                          ..    ",
"          .              .      ",
"  .         .    .              ",
"   .              ..            ",
"    ..                          ",
"         ..                .    ",
"        .              .        ",
"  .                     ..      ",
"               .   .            ",
"                  . ..       .  ",
"  .      .                 .  . ",
"   .      ..           .        ",
"                                "
};
